<svg xmlns="http://www.w3.org/2000/svg" width="1024" height="1024" viewBox="0 0 1024 1024">
    <defs>
  <linearGradient id="sh-bg" x1="0" y1="0" x2="1" y2="1">
    <stop offset="0%" stop-color="#102B2B" />
    <stop offset="48%" stop-color="#07111B" />
    <stop offset="100%" stop-color="#03080F" />
  </linearGradient>
  <radialGradient id="sh-ambient" cx="50%" cy="47%" r="52%">
    <stop offset="0%" stop-color="#63D6B5" stop-opacity="0.24" />
    <stop offset="62%" stop-color="#63D6B5" stop-opacity="0.07" />
    <stop offset="100%" stop-color="#63D6B5" stop-opacity="0" />
  </radialGradient>
  <linearGradient id="sh-disc" x1="16" y1="12" x2="82" y2="90" gradientUnits="userSpaceOnUse">
    <stop offset="0%" stop-color="#173A3B" stop-opacity="0.94" />
    <stop offset="55%" stop-color="#0A1B24" stop-opacity="0.97" />
    <stop offset="100%" stop-color="#050B12" stop-opacity="0.99" />
  </linearGradient>
  <linearGradient id="sh-rim" x1="14" y1="12" x2="86" y2="90" gradientUnits="userSpaceOnUse">
    <stop offset="0%" stop-color="#FFF7DE" stop-opacity="0.3" />
    <stop offset="42%" stop-color="#63D6B5" stop-opacity="0.68" />
    <stop offset="100%" stop-color="#63D6B5" stop-opacity="0.12" />
  </linearGradient>
  <linearGradient id="sh-star" x1="50" y1="10" x2="50" y2="67" gradientUnits="userSpaceOnUse">
    <stop offset="0%" stop-color="#FFF7DE" />
    <stop offset="44%" stop-color="#E9CD7E" />
    <stop offset="100%" stop-color="#C9953F" />
  </linearGradient>
  <radialGradient id="sh-glow" cx="50%" cy="39%" r="44%">
    <stop offset="0%" stop-color="#E9CD7E" stop-opacity="0.42" />
    <stop offset="100%" stop-color="#E9CD7E" stop-opacity="0" />
  </radialGradient>
</defs>
    <rect width="1024" height="1024" rx="0" fill="url(#sh-bg)" />
    <circle cx="512" cy="492" r="430" fill="url(#sh-ambient)" />
    <g transform="translate(174 174) scale(6.76)">
    <circle cx="50" cy="50" r="42" fill="url(#sh-disc)" stroke="url(#sh-rim)" stroke-width="1.35" />
    <circle cx="50" cy="39" r="31" fill="url(#sh-glow)" />
    <circle cx="50" cy="50" r="32" fill="none" stroke="#63D6B5" stroke-width="0.8" opacity="0.18" />
    <circle cx="50" cy="50" r="25" fill="none" stroke="#63D6B5" stroke-width="0.7" opacity="0.13" />
    <circle cx="50" cy="50" r="18" fill="none" stroke="#63D6B5" stroke-width="0.6" opacity="0.1" />
    <path d="M11,77 L27,54 L39,68 L50,57 L61,68 L73,54 L89,77 L89,89 L11,89 Z" fill="#0B3028"  />
    <path d="M11,84 L28,67 L42,80 L50,73 L58,80 L72,67 L89,84 L89,91 L11,91 Z" fill="#03120F" />
    <path d="M50,10 C51.4,21 52.7,28 55.5,32 C61,34.3 68.5,35.8 78,37 C68.5,38.4 61,39.8 55.5,42 C52.8,47 51.5,55 50,67 C48.5,55 47.2,47 44.5,42 C39,39.8 31.5,38.4 22,37 C31.5,35.8 39,34.3 44.5,32 C47.3,28 48.6,21 50,10 Z" fill="url(#sh-star)" />
    <path d="M50,27 C50.7,32.2 51.3,34.4 53,36.5 C55.6,37.3 57.8,37.8 61,38.5 C57.8,39.2 55.6,39.7 53,40.5 C51.4,42.7 50.8,45 50,50 C49.2,45 48.6,42.7 47,40.5 C44.4,39.7 42.2,39.2 39,38.5 C42.2,37.8 44.4,37.3 47,36.5 C48.7,34.4 49.3,32.2 50,27 Z" fill="#FFF7DE" opacity="0.92" />
    <circle cx="24" cy="24" r="1.45" fill="#E9CD7E" opacity="0.72" />
    <circle cx="76" cy="20" r="1.05" fill="#E9CD7E" opacity="0.5" />
  </g>
  </svg>